<svg xmlns="http://www.w3.org/2000/svg" viewBox="0 0 240 200" fill="none">
  <path d="M48 55c14-18 51-28 78-18 18 7 31 22 31 43 0 31-29 55-66 55-30 0-60-18-60-47 0-13 6-25 17-33Z" fill="#F4BD4F" fill-opacity=".28"/>
  <rect x="73" y="42" width="86" height="105" rx="16" fill="#FFF8EB" stroke="#F4BD4F" stroke-width="6" transform="rotate(8 73 42)"/>
  <rect x="42" y="35" width="86" height="105" rx="16" fill="#FFF8EB" stroke="#B9E3D1" stroke-width="6" transform="rotate(-8 42 35)"/>
  <circle cx="84" cy="76" r="17" fill="#237E78"/>
  <path d="m69 111 15-15 13 12 13-17 17 20" stroke="#237E78" stroke-linecap="round" stroke-linejoin="round" stroke-width="7"/>
  <circle cx="130" cy="92" r="17" fill="#C98B37"/>
  <path d="m115 128 15-15 13 12 13-17 17 20" stroke="#C98B37" stroke-linecap="round" stroke-linejoin="round" stroke-width="7"/>
</svg>