<svg xmlns="http://www.w3.org/2000/svg" width="1200" height="1697" viewBox="0 0 1200 1697">
  <rect width="1200" height="1697" fill="#f8f2e6"/>
  <g fill="#fffdf8" stroke-width="10">
    <rect x="40" y="40" width="535" height="780" rx="42" stroke="#193f75"/>
    <rect x="625" y="40" width="535" height="780" rx="42" stroke="#237e78"/>
    <rect x="40" y="877" width="535" height="780" rx="42" stroke="#8764ab"/>
    <rect x="625" y="877" width="535" height="780" rx="42" stroke="#5d9035"/>
  </g>
  <g stroke-linecap="round" stroke-linejoin="round">
    <g transform="translate(40 40)"><circle cx="267" cy="350" r="140" fill="#f5e2b9"/><circle cx="267" cy="280" r="76" fill="#9c603e"/><path d="M192 274c14-95 145-102 154 0-49-37-108-37-154 0Z" fill="#20314d"/><path d="M145 430q122-82 244 0l52 198H93Z" fill="#193f75"/><path d="M156 492q111-62 222 0" fill="none" stroke="#f5e2b9" stroke-width="22"/><path d="M164 470h206v142H164z" fill="#fffdf8" stroke="#e5b84d" stroke-width="14"/><path d="M267 470v142" stroke="#e5b84d" stroke-width="9"/><circle cx="128" cy="604" r="48" fill="#d89968"/><circle cx="408" cy="604" r="42" fill="#d89968"/><circle cx="443" cy="92" r="50" fill="#193f75"/><path d="M416 99h54m-27-27v54" stroke="#f5e2b9" stroke-width="12"/><path d="M183 711h168" stroke="#e5b84d" stroke-width="20"/></g>
    <g transform="translate(625 40)"><circle cx="267" cy="350" r="140" fill="#dff0e5"/><circle cx="330" cy="304" r="76" fill="#9c603e"/><path d="M255 299c14-95 145-102 154 0-49-37-108-37-154 0Z" fill="#20314d"/><path d="M208 450q122-82 244 0l42 177H165Z" fill="#237e78"/><circle cx="177" cy="424" r="58" fill="#d89968"/><path d="M112 230h132q18 0 18 18v74q0 18-18 18h-64l-35 35 9-35h-42q-18 0-18-18v-74q0-18 18-18Z" fill="#fffdf8" stroke="#237e78" stroke-width="10"/><path d="M301 206h132q18 0 18 18v74q0 18-18 18h-42l9 35-35-35h-64q-18 0-18-18v-74q0-18 18-18Z" fill="#fffdf8" stroke="#e87b63" stroke-width="10"/><circle cx="443" cy="92" r="50" fill="#237e78"/><path d="M424 102h38M443 83v38" stroke="#f5e2b9" stroke-width="12"/><path d="M183 711h168" stroke="#e87b63" stroke-width="20"/></g>
    <g transform="translate(40 877)"><circle cx="267" cy="350" r="140" fill="#eee4f3"/><circle cx="267" cy="298" r="75" fill="#a96848"/><path d="M193 292c12-94 143-100 148 0-48-35-101-35-148 0Z" fill="#29233b"/><path d="M145 448q122-82 244 0l52 180H93Z" fill="#8764ab"/><path d="M169 444q-40-136-26-196" fill="none" stroke="#a96848" stroke-width="34"/><circle cx="145" cy="225" r="19" fill="#a96848"/><rect x="118" y="518" width="298" height="126" rx="20" fill="#fffdf8" stroke="#f3c35a" stroke-width="12"/><path d="M169 580h92m44 0h92" stroke="#8764ab" stroke-width="15"/><circle cx="443" cy="92" r="50" fill="#8764ab"/><path d="M443 62v55m-26-28h52" stroke="#f5e2b9" stroke-width="12"/><path d="M183 711h168" stroke="#f3c35a" stroke-width="20"/></g>
    <g transform="translate(625 877)"><circle cx="267" cy="350" r="140" fill="#e3efdd"/><circle cx="267" cy="298" r="72" fill="#a96848"/><path d="M196 292c12-94 139-100 143 0-46-35-97-35-143 0Z" fill="#2f2833"/><path d="M145 448q122-82 244 0l52 180H93Z" fill="#5d9035"/><path d="M141 484h254l-18 144H159Z" fill="#b87e45" stroke="#875830" stroke-width="12"/><path d="M189 484v-54q78-64 156 0v54" fill="none" stroke="#875830" stroke-width="16"/><circle cx="214" cy="540" r="22" fill="#f3c35a"/><circle cx="321" cy="560" r="24" fill="#b8c5ca"/><path d="M153 403q-54 24-79 73m399-73q54 24 79 73" fill="none" stroke="#a96848" stroke-width="30"/><circle cx="443" cy="92" r="50" fill="#5d9035"/><path d="M422 91h42m-21-21v42" stroke="#f5e2b9" stroke-width="12"/><path d="M183 711h168" stroke="#71b9d8" stroke-width="20"/></g>
  </g>
  <g fill="none" stroke="#b9b0a2" stroke-width="3" stroke-dasharray="11 12"><path d="M600 20v1657M20 848.5h1160"/></g>
</svg>
